<svg width="1024" height="500" viewBox="0 0 1024 500" fill="none" xmlns="http://www.w3.org/2000/svg">
<path d="M234.6 325.6V310.32C234.6 308.44 236.16 306.88 238.04 306.88C239.96 306.88 241.52 308.44 241.52 310.32V310.88C242.6 308.76 244.84 306.76 248.56 306.76C251.92 306.76 254.44 308 255.6 311.08C256.84 308.56 259.08 306.76 262.76 306.76C268.32 306.76 270.44 310.24 270.44 315.24V325.6C270.44 327.64 268.76 329.32 266.72 329.32C264.68 329.32 263 327.64 263 325.6V316.36C263 313.04 261.12 312.4 259.84 312.4C258.32 312.4 256.24 313.2 256.24 317.28V325.6C256.24 327.64 254.56 329.32 252.52 329.32C250.48 329.32 248.8 327.64 248.8 325.6V316.36C248.8 313.04 246.92 312.4 245.64 312.4C244.12 312.4 242.04 313.2 242.04 317.28V325.6C242.04 327.64 240.36 329.32 238.32 329.32C236.28 329.32 234.6 327.64 234.6 325.6ZM282.059 310.48C282.059 308.48 283.659 306.88 285.659 306.88C287.219 306.88 288.579 307.88 289.059 309.32L291.739 317.24C292.139 318.4 292.379 319.36 292.499 320.2C292.579 320.68 292.619 321.12 292.659 321.56H292.899C292.939 321.12 293.019 320.68 293.139 320.2C293.299 319.4 293.539 318.32 293.899 317.24L296.459 309.2C296.899 307.88 298.139 306.88 299.659 306.88C301.499 306.88 302.979 308.36 302.979 310.24C302.979 310.64 302.899 311.04 302.779 311.4L293.579 336C293.099 337.28 291.899 338.2 290.419 338.2C288.579 338.2 287.059 336.68 287.059 334.84C287.059 334.4 287.179 334 287.299 333.64L288.899 329.32L282.299 311.72C282.139 311.36 282.059 310.92 282.059 310.48ZM332.78 325.92V301.28C332.78 299.24 334.46 297.56 336.5 297.56C338.54 297.56 340.22 299.24 340.22 301.28V310.32C341.14 308.64 342.94 306.76 346.54 306.76C352.7 306.76 355.54 311.72 355.54 317.68C355.54 325.04 351.42 329.48 346.14 329.48C342.18 329.48 340.54 327.76 339.62 326.64C339.3 328.16 337.86 329.32 336.18 329.32C334.3 329.32 332.78 327.8 332.78 325.92ZM340.02 318.08C340.02 322.84 341.86 324.48 344.02 324.48C346.18 324.48 348.06 322.6 348.06 318.08C348.06 313.56 346.14 311.96 344.1 311.96C341.74 311.96 340.02 313.8 340.02 318.08ZM366.455 318.16C366.455 311.52 370.775 306.64 377.735 306.64C384.815 306.64 388.655 311.88 388.655 316.56C388.655 318.8 387.935 320.08 385.375 320.08H373.575C373.855 322.68 375.535 324.36 378.055 324.36C381.055 324.36 381.375 321.96 383.855 321.96C385.495 321.96 386.855 323.32 386.855 325.04C386.855 328.32 382.575 329.6 378.655 329.6C371.095 329.6 366.455 325.16 366.455 318.16ZM373.615 315.72H381.495C381.375 313.16 379.855 311.56 377.615 311.56C375.375 311.56 373.895 313.16 373.615 315.72ZM408.978 329.68C403.338 329.68 399.018 328.24 399.018 324.92C399.018 322.72 400.018 321.64 401.978 321.64C404.738 321.64 405.378 324.76 409.258 324.76C410.778 324.76 411.818 324.16 411.818 322.84C411.818 322.04 411.458 321.52 409.498 321.12L406.778 320.56C401.858 319.56 399.498 317.28 399.498 313.72C399.498 309.08 403.458 306.64 409.378 306.64C413.138 306.64 417.938 308.56 417.938 311.64C417.938 312.88 416.978 314.04 415.618 314.04C412.698 314.04 413.178 311.4 409.018 311.4C407.578 311.4 406.498 312.08 406.498 313.24C406.498 314.16 407.218 314.56 408.978 314.92L412.098 315.56C416.898 316.56 418.938 318.84 418.938 322.44C418.938 326.92 416.578 329.68 408.978 329.68ZM428.796 309.68C428.796 308.32 429.876 307.2 431.236 307.2H432.596L432.756 304.24C432.836 302.48 434.356 301.04 436.156 301.04C438.036 301.04 439.556 302.56 439.556 304.44V307.2H441.916C443.276 307.2 444.356 308.32 444.356 309.64C444.356 311 443.276 312.12 441.916 312.12H439.716V321.04C439.716 323.32 440.956 323.8 441.876 324.04C443.556 324.52 444.756 325.04 444.756 326.44C444.756 329.4 441.836 329.48 439.316 329.48C434.076 329.48 432.276 326.84 432.316 321.68L432.356 312.12H431.236C429.876 312.12 428.796 311 428.796 309.68Z" fill="#00390D"/>
<path d="M566.56 310.52C566.56 308.52 568.2 306.88 570.2 306.88C571.84 306.88 573.24 307.96 573.68 309.48L576.08 317.52C576.4 318.6 576.64 319.72 576.8 320.56C576.92 321.04 577 321.52 577.04 322H577.28C577.36 321.52 577.44 321.04 577.56 320.56C577.72 319.72 578 318.64 578.32 317.56L580.8 309.28C581.2 307.92 582.48 306.88 584 306.88C585.88 306.88 587.36 308.4 587.36 310.24C587.36 310.64 587.28 311.04 587.16 311.4L582 325.76C581.24 327.88 579.28 329.32 576.92 329.32C574.56 329.32 572.6 327.88 571.84 325.76L566.8 311.72C566.68 311.32 566.56 310.92 566.56 310.52ZM601.447 318.16C601.447 311.52 605.767 306.64 612.727 306.64C619.807 306.64 623.647 311.88 623.647 316.56C623.647 318.8 622.927 320.08 620.367 320.08H608.567C608.847 322.68 610.527 324.36 613.047 324.36C616.047 324.36 616.367 321.96 618.847 321.96C620.487 321.96 621.847 323.32 621.847 325.04C621.847 328.32 617.567 329.6 613.647 329.6C606.087 329.6 601.447 325.16 601.447 318.16ZM608.607 315.72H616.487C616.367 313.16 614.847 311.56 612.607 311.56C610.367 311.56 608.887 313.16 608.607 315.72ZM639.491 325.6V310.32C639.491 308.44 641.051 306.88 642.931 306.88C644.851 306.88 646.411 308.44 646.411 310.32V311.28H646.571C647.371 309.36 648.411 306.88 650.811 306.88C653.491 306.88 654.291 308.84 654.291 310.12C654.291 311.64 653.131 313.28 651.171 313.28C647.851 313.28 646.931 316.16 646.931 319.04V325.6C646.931 327.64 645.251 329.32 643.211 329.32C641.171 329.32 639.491 327.64 639.491 325.6ZM678.096 329.68C672.456 329.68 668.136 328.24 668.136 324.92C668.136 322.72 669.136 321.64 671.096 321.64C673.856 321.64 674.496 324.76 678.376 324.76C679.896 324.76 680.936 324.16 680.936 322.84C680.936 322.04 680.576 321.52 678.616 321.12L675.896 320.56C670.976 319.56 668.616 317.28 668.616 313.72C668.616 309.08 672.576 306.64 678.496 306.64C682.256 306.64 687.056 308.56 687.056 311.64C687.056 312.88 686.096 314.04 684.736 314.04C681.816 314.04 682.296 311.4 678.136 311.4C676.696 311.4 675.616 312.08 675.616 313.24C675.616 314.16 676.336 314.56 678.096 314.92L681.216 315.56C686.016 316.56 688.056 318.84 688.056 322.44C688.056 326.92 685.696 329.68 678.096 329.68ZM703.913 301C703.913 299.28 705.313 297.88 707.033 297.88H708.873C710.593 297.88 711.993 299.28 711.993 301C711.993 302.72 710.593 304.12 708.873 304.12H707.033C705.313 304.12 703.913 302.72 703.913 301ZM704.233 325.6V310.6C704.233 308.56 705.913 306.88 707.953 306.88C709.993 306.88 711.673 308.56 711.673 310.6V325.6C711.673 327.64 709.993 329.32 707.953 329.32C705.913 329.32 704.233 327.64 704.233 325.6ZM727.689 318.16C727.689 311.52 731.849 306.64 739.209 306.64C746.649 306.64 750.649 311.6 750.649 318.08C750.649 324.72 746.409 329.6 739.049 329.6C731.689 329.6 727.689 324.68 727.689 318.16ZM735.129 318.08C735.129 321.84 736.409 324.28 739.169 324.28C741.929 324.28 743.169 321.84 743.169 318.12C743.169 314.44 741.929 311.96 739.129 311.96C736.369 311.96 735.129 314.4 735.129 318.08ZM766.631 325.6V310.32C766.631 308.44 768.191 306.88 770.071 306.88C771.991 306.88 773.551 308.44 773.551 310.32V310.88C774.631 308.76 776.871 306.76 780.591 306.76C786.151 306.76 788.271 310.24 788.271 315.24V325.6C788.271 327.64 786.591 329.32 784.551 329.32C782.511 329.32 780.831 327.64 780.831 325.6V316.4C780.831 313.04 778.951 312.4 777.671 312.4C776.151 312.4 774.071 313.16 774.071 317.32V325.6C774.071 327.64 772.391 329.32 770.351 329.32C768.311 329.32 766.631 327.64 766.631 325.6Z" fill="#00390D"/>
<path d="M245 268V191.6C245 182.2 252.8 174.4 262.2 174.4C271.8 174.4 279.6 182.2 279.6 191.6V194.4C285 183.8 296.2 173.8 314.8 173.8C331.6 173.8 344.2 180 350 195.4C356.2 182.8 367.4 173.8 385.8 173.8C413.6 173.8 424.2 191.2 424.2 216.2V268C424.2 278.2 415.8 286.6 405.6 286.6C395.4 286.6 387 278.2 387 268V221.8C387 205.2 377.6 202 371.2 202C363.6 202 353.2 206 353.2 226.4V268C353.2 278.2 344.8 286.6 334.6 286.6C324.4 286.6 316 278.2 316 268V221.8C316 205.2 306.6 202 300.2 202C292.6 202 282.2 206 282.2 226.4V268C282.2 278.2 273.8 286.6 263.6 286.6C253.4 286.6 245 278.2 245 268ZM442.297 192.4C442.297 182.4 450.297 174.4 460.297 174.4C468.097 174.4 474.897 179.4 477.297 186.6L490.697 226.2C492.697 232 493.897 236.8 494.497 241C494.897 243.4 495.097 245.6 495.297 247.8H496.497C496.697 245.6 497.097 243.4 497.697 241C498.497 237 499.697 231.6 501.497 226.2L514.297 186C516.497 179.4 522.697 174.4 530.297 174.4C539.497 174.4 546.897 181.8 546.897 191.2C546.897 193.2 546.497 195.2 545.897 197L499.897 320C497.497 326.4 491.497 331 484.097 331C474.897 331 467.297 323.4 467.297 314.2C467.297 312 467.897 310 468.497 308.2L476.497 286.6L443.497 198.6C442.697 196.8 442.297 194.6 442.297 192.4ZM565.898 269.6V146.4C565.898 136.2 574.298 127.8 584.498 127.8C594.698 127.8 603.098 136.2 603.098 146.4V191.6C607.698 183.2 616.698 173.8 634.698 173.8C665.498 173.8 679.698 198.6 679.698 228.4C679.698 265.2 659.098 287.4 632.698 287.4C612.898 287.4 604.698 278.8 600.098 273.2C598.498 280.8 591.298 286.6 582.898 286.6C573.498 286.6 565.898 279 565.898 269.6ZM602.098 230.4C602.098 254.2 611.298 262.4 622.098 262.4C632.898 262.4 642.298 253 642.298 230.4C642.298 207.8 632.698 199.8 622.498 199.8C610.698 199.8 602.098 209 602.098 230.4ZM691.167 192.6C691.167 182.6 699.367 174.4 709.367 174.4C717.567 174.4 724.567 179.8 726.767 187.4L738.767 227.6C740.367 233 741.567 238.6 742.367 242.8C742.967 245.2 743.367 247.6 743.567 250H744.767C745.167 247.6 745.567 245.2 746.167 242.8C746.967 238.6 748.367 233.2 749.967 227.8L762.367 186.4C764.367 179.6 770.767 174.4 778.367 174.4C787.767 174.4 795.167 182 795.167 191.2C795.167 193.2 794.767 195.2 794.167 197L768.367 268.8C764.567 279.4 754.767 286.6 742.967 286.6C731.167 286.6 721.367 279.4 717.567 268.8L692.367 198.6C691.767 196.6 691.167 194.6 691.167 192.6Z" fill="#00390D"/>
<path d="M233 259V182.6C233 173.2 240.8 165.4 250.2 165.4C259.8 165.4 267.6 173.2 267.6 182.6V185.4C273 174.8 284.2 164.8 302.8 164.8C319.6 164.8 332.2 171 338 186.4C344.2 173.8 355.4 164.8 373.8 164.8C401.6 164.8 412.2 182.2 412.2 207.2V259C412.2 269.2 403.8 277.6 393.6 277.6C383.4 277.6 375 269.2 375 259V212.8C375 196.2 365.6 193 359.2 193C351.6 193 341.2 197 341.2 217.4V259C341.2 269.2 332.8 277.6 322.6 277.6C312.4 277.6 304 269.2 304 259V212.8C304 196.2 294.6 193 288.2 193C280.6 193 270.2 197 270.2 217.4V259C270.2 269.2 261.8 277.6 251.6 277.6C241.4 277.6 233 269.2 233 259ZM430.297 183.4C430.297 173.4 438.297 165.4 448.297 165.4C456.097 165.4 462.897 170.4 465.297 177.6L478.697 217.2C480.697 223 481.897 227.8 482.497 232C482.897 234.4 483.097 236.6 483.297 238.8H484.497C484.697 236.6 485.097 234.4 485.697 232C486.497 228 487.697 222.6 489.497 217.2L502.297 177C504.497 170.4 510.697 165.4 518.297 165.4C527.497 165.4 534.897 172.8 534.897 182.2C534.897 184.2 534.497 186.2 533.897 188L487.897 311C485.497 317.4 479.497 322 472.097 322C462.897 322 455.297 314.4 455.297 305.2C455.297 303 455.897 301 456.497 299.2L464.497 277.6L431.497 189.6C430.697 187.8 430.297 185.6 430.297 183.4ZM553.898 260.6V137.4C553.898 127.2 562.298 118.8 572.498 118.8C582.698 118.8 591.098 127.2 591.098 137.4V182.6C595.698 174.2 604.698 164.8 622.698 164.8C653.498 164.8 667.698 189.6 667.698 219.4C667.698 256.2 647.098 278.4 620.698 278.4C600.898 278.4 592.698 269.8 588.098 264.2C586.498 271.8 579.298 277.6 570.898 277.6C561.498 277.6 553.898 270 553.898 260.6ZM590.098 221.4C590.098 245.2 599.298 253.4 610.098 253.4C620.898 253.4 630.298 244 630.298 221.4C630.298 198.8 620.698 190.8 610.498 190.8C598.698 190.8 590.098 200 590.098 221.4ZM679.167 183.6C679.167 173.6 687.367 165.4 697.367 165.4C705.567 165.4 712.567 170.8 714.767 178.4L726.767 218.6C728.367 224 729.567 229.6 730.367 233.8C730.967 236.2 731.367 238.6 731.567 241H732.767C733.167 238.6 733.567 236.2 734.167 233.8C734.967 229.6 736.367 224.2 737.967 218.8L750.367 177.4C752.367 170.6 758.767 165.4 766.367 165.4C775.767 165.4 783.167 173 783.167 182.2C783.167 184.2 782.767 186.2 782.167 188L756.367 259.8C752.567 270.4 742.767 277.6 730.967 277.6C719.167 277.6 709.367 270.4 705.567 259.8L680.367 189.6C679.767 187.6 679.167 185.6 679.167 183.6Z" fill="#28A745"/>
</svg>
